HIERARCHY
ROOT Pelvis
{
	OFFSET 0.000000 0.000000 0.000000
	CHANNELS 6 Xposition Yposition Zposition Xrotation Yrotation Zrotation
	JOINT LeftUpLeg_virtual
	{
		OFFSET 0.000000 0.000000 0.000000
		CHANNELS 3 Xrotation Yrotation Zrotation
		JOINT LeftUpLeg
		{
			OFFSET 8.479700 -4.795502 -0.379100
			CHANNELS 3 Xrotation Yrotation Zrotation
			JOINT LeftLeg
			{
				OFFSET 0.024144 -32.555107 0.112900
				CHANNELS 3 Xrotation Yrotation Zrotation
				JOINT LeftFoot
				{
					OFFSET -0.024144 -32.638630 -3.012600
					CHANNELS 3 Xrotation Yrotation Zrotation
					JOINT LeftToeBase
					{
						OFFSET 0.970200 -13.225400 11.864200
						CHANNELS 3 Xrotation Yrotation Zrotation
						End Site
						{
							OFFSET 0 0 0
						}
					}
				}
			}
		}
	}
	JOINT RightUpLeg_virtual
	{
		OFFSET 0.000000 0.000000 0.000000
		CHANNELS 3 Xrotation Yrotation Zrotation
		JOINT RightUpLeg
		{
			OFFSET -8.479700 -4.795502 -0.379100
			CHANNELS 3 Xrotation Yrotation Zrotation
			JOINT RightLeg
			{
				OFFSET -0.023144 -32.555092 0.112900
				CHANNELS 3 Xrotation Yrotation Zrotation
				JOINT RightFoot
				{
					OFFSET 0.023144 -32.638641 -3.012700
					CHANNELS 3 Xrotation Yrotation Zrotation
					JOINT RightToeBase
					{
						OFFSET -0.970200 -13.225400 11.864200
						CHANNELS 3 Xrotation Yrotation Zrotation
						End Site
						{
							OFFSET 0 0 0
						}
					}
				}
			}
		}
	}
	JOINT Hips_virtual
	{
		OFFSET 0.000000 0.000000 0.000000
		CHANNELS 3 Xrotation Yrotation Zrotation
		JOINT Hips
		{
			OFFSET -0.000000 -0.000000 -0.000000
			CHANNELS 3 Xrotation Yrotation Zrotation
			JOINT Spine
			{
				OFFSET 0.000000 7.722000 1.166200
				CHANNELS 3 Xrotation Yrotation Zrotation
				JOINT Spine1
				{
					OFFSET 0.000000 12.024101 0.248800
					CHANNELS 3 Xrotation Yrotation Zrotation
					JOINT Spine2
					{
						OFFSET 0.000000 11.502998 -0.491200
						CHANNELS 3 Xrotation Yrotation Zrotation
						JOINT Neck_virtual
						{
							OFFSET 0.000000 0.000000 0.000000
							CHANNELS 3 Xrotation Yrotation Zrotation
							JOINT Neck
							{
								OFFSET 0.000000 18.430702 -3.123100
								CHANNELS 3 Xrotation Yrotation Zrotation
								JOINT Head
								{
									OFFSET 0.000000 9.051102 1.034000
									CHANNELS 3 Xrotation Yrotation Zrotation
									End Site
									{
										OFFSET 0 0 0
									}
								}
							}
						}
						JOINT LeftShoulder_virtual
						{
							OFFSET 0.000000 0.000000 0.000000
							CHANNELS 3 Xrotation Yrotation Zrotation
							JOINT LeftShoulder
							{
								OFFSET 6.197800 13.665199 -4.064700
								CHANNELS 3 Xrotation Yrotation Zrotation
								JOINT LeftArm
								{
									OFFSET 7.778100 -0.187103 -1.709300
									CHANNELS 3 Xrotation Yrotation Zrotation
									JOINT LeftForeArm
									{
										OFFSET 22.049376 0.000000 0.000000
										CHANNELS 3 Xrotation Yrotation Zrotation
										JOINT LeftHand
										{
											OFFSET 23.009392 0.000000 0.000000
											CHANNELS 3 Xrotation Yrotation Zrotation
											End Site
											{
												OFFSET 0 0 0
											}
										}
									}
								}
							}
						}
						JOINT RightShoulder_virtual
						{
							OFFSET 0.000000 0.000000 0.000000
							CHANNELS 3 Xrotation Yrotation Zrotation
							JOINT RightShoulder
							{
								OFFSET -6.197800 13.665199 -4.064700
								CHANNELS 3 Xrotation Yrotation Zrotation
								JOINT RightArm
								{
									OFFSET -7.778100 -0.187103 -1.709300
									CHANNELS 3 Xrotation Yrotation Zrotation
									JOINT RightForeArm
									{
										OFFSET -22.049376 0.000000 0.000000
										CHANNELS 3 Xrotation Yrotation Zrotation
										JOINT RightHand
										{
											OFFSET -23.009392 0.000000 0.000000
											CHANNELS 3 Xrotation Yrotation Zrotation
											End Site
											{
												OFFSET 0 0 0
											}
										}
									}
								}
							}
						}
					}
				}
			}
		}
	}
}
MOTION
Frames: 11
Frame Time: 0.03333333
7.942266 72.512527 -0.570995 0.000000 0.000000 0.000000 9.467845 -0.616045 -10.628673 -53.686072 -8.791529 27.759637 48.764699 -2.079662 -1.905707 -2.157702 1.548305 -12.361923 0.000000 0.000000 0.000000 9.467845 -0.616045 -10.628673 -43.097425 -27.141066 2.228312 53.891217 5.795100 -0.847351 -21.168510 -19.813390 -8.191787 0.000000 0.000000 0.000000 9.467845 -0.616045 -10.628673 0.000000 0.000000 0.000000 8.507457 -3.264032 -6.919782 6.795712 -2.703226 -6.539376 0.000000 0.000000 0.000000 6.822725 -2.529054 -6.561657 -6.756029 -0.095606 -6.250957 0.000000 0.000000 0.000000 6.822725 -2.529054 -6.561657 0.657404 -5.474603 -9.273256 -31.650885 6.573780 -19.060521 0.000023 -57.717284 0.000036 0.000000 0.000000 0.000000 6.822725 -2.529054 -6.561657 0.361053 -0.787758 2.746801 26.141057 -12.666238 76.530787 0.000084 79.226766 -0.000087 0.000000 0.000000 0.000000 
7.979369 72.143112 -1.143618 0.000000 0.000000 0.000000 9.217578 -1.696951 -10.339579 -54.019905 -9.148636 27.926140 49.808202 -1.322578 -1.913519 -2.237237 1.546098 -12.433769 0.000000 0.000000 0.000000 9.217578 -1.696951 -10.339579 -44.199800 -26.249170 2.463761 54.937783 5.847116 -0.848213 -21.005714 -19.994423 -8.452788 0.000000 0.000000 0.000000 9.217578 -1.696951 -10.339579 0.000000 0.000000 0.000000 8.993797 -2.908116 -6.638325 7.111671 -2.571603 -6.414009 0.000000 0.000000 0.000000 7.134275 -2.412002 -6.415072 -6.827572 -0.078840 -6.203635 0.000000 0.000000 0.000000 7.134275 -2.412002 -6.415072 0.636255 -5.572582 -9.846500 -30.413098 9.620333 -20.356761 -0.000001 -56.736995 0.000001 0.000000 0.000000 0.000000 7.134275 -2.412002 -6.415072 0.435988 -0.154698 3.207697 23.731620 -11.004986 75.385276 0.000015 77.036283 -0.000011 0.000000 0.000000 0.000000 
8.009928 71.866722 -1.454720 0.000000 0.000000 0.000000 8.942128 -3.086613 -10.035482 -53.885012 -9.466631 28.303078 50.836193 -0.106403 -1.922119 -2.550970 1.579897 -12.740150 0.000000 0.000000 0.000000 8.942128 -3.086613 -10.035482 -44.824083 -25.513851 2.829939 55.719334 6.251764 -0.850242 -20.939480 -20.011846 -8.822671 0.000000 0.000000 0.000000 8.942128 -3.086613 -10.035482 0.000000 0.000000 0.000001 9.439736 -2.552119 -6.360609 7.403568 -2.428329 -6.253433 0.000000 0.000000 0.000000 7.422360 -2.272618 -6.260118 -6.781098 -0.061875 -6.124014 0.000000 0.000000 0.000000 7.422360 -2.272618 -6.260118 0.598233 -5.646885 -10.458242 -29.130064 12.344778 -22.295100 0.000015 -55.646982 0.000024 0.000000 0.000000 0.000000 7.422360 -2.272618 -6.260118 0.490280 0.534000 3.685339 21.315680 -9.569358 74.194310 -0.000042 75.301374 0.000047 0.000000 0.000000 0.000000 
8.013756 71.622429 -1.711266 0.000000 0.000000 0.000000 8.746167 -4.190414 -9.775101 -53.960598 -9.671804 28.506259 51.874129 0.858241 -1.927319 -2.873501 1.595241 -12.680230 0.000000 0.000000 0.000000 8.746167 -4.190414 -9.775101 -45.398437 -24.764096 3.206466 56.406127 6.386445 -0.852630 -20.894705 -20.057892 -9.045586 0.000000 0.000000 0.000000 8.746167 -4.190414 -9.775101 0.000000 0.000000 0.000000 9.805969 -2.262449 -6.141383 7.641415 -2.286363 -6.122387 0.000000 0.000000 0.000000 7.656625 -2.105084 -6.121624 -6.723329 -0.048805 -5.995121 0.000000 0.000000 0.000000 7.656625 -2.105084 -6.121624 0.557991 -5.698679 -11.061473 -27.972077 14.186040 -24.353224 -0.000010 -54.075147 -0.000008 0.000000 0.000000 0.000000 7.656625 -2.105084 -6.121624 0.544754 1.131276 4.238604 19.483436 -8.250652 73.006642 0.000025 73.739064 -0.000011 0.000000 0.000000 0.000000 
7.969715 71.438141 -1.966972 0.000000 0.000000 0.000000 8.611573 -4.958012 -9.555038 -54.266898 -9.749777 28.525973 52.802154 1.559991 -1.920111 -3.093785 1.541066 -11.996835 0.000000 0.000000 0.000000 8.611573 -4.958012 -9.555038 -45.890620 -23.961019 3.653274 56.885350 6.265630 -0.854320 -20.800093 -20.252636 -9.154765 0.000000 0.000000 0.000000 8.611573 -4.958012 -9.555038 0.000000 0.000000 0.000000 10.020483 -2.099602 -5.967602 7.767368 -2.138695 -6.024959 0.000000 0.000000 0.000000 7.779426 -1.971604 -6.025092 -6.514335 -0.027297 -5.876470 0.000000 0.000000 0.000000 7.779426 -1.971604 -6.025092 0.524207 -5.743404 -11.652804 -26.668460 15.753008 -26.299695 -0.000010 -52.301965 -0.000025 0.000000 0.000000 0.000000 7.779426 -1.971604 -6.025092 0.591557 1.635288 4.805941 18.029326 -7.082860 72.202517 0.000026 72.356818 -0.000038 0.000000 0.000000 0.000000 
7.885579 71.292068 -2.193817 0.000000 0.000000 0.000000 8.521501 -5.432246 -9.397463 -54.619961 -9.687641 28.552909 53.479186 1.887900 -1.916075 -3.227810 1.489156 -11.358295 0.000000 0.000000 0.000000 8.521501 -5.432246 -9.397463 -46.297218 -23.158303 4.141243 57.236248 5.850008 -0.854963 -20.701463 -20.460706 -9.127265 0.000000 0.000000 0.000000 8.521501 -5.432246 -9.397463 -0.000001 0.000000 0.000000 10.115046 -1.983795 -5.865608 7.808637 -2.020715 -5.922203 0.000000 0.000000 0.000000 7.818908 -1.853668 -5.947464 -6.171850 -0.009693 -5.712659 0.000000 0.000000 0.000000 7.818908 -1.853668 -5.947464 0.491188 -5.781711 -12.249150 -25.319250 17.178622 -28.321178 -0.000001 -50.818103 -0.000003 0.000000 0.000000 0.000000 7.818908 -1.853668 -5.947464 0.599694 2.062543 5.417962 16.395565 -5.953256 71.596119 0.000022 70.649605 -0.000039 0.000000 0.000000 0.000000 
7.769225 71.242493 -2.449318 0.000000 0.000000 0.000000 8.406459 -5.739825 -9.305587 -54.827940 -9.574137 28.574172 53.745973 2.125592 -1.909589 -3.140528 1.410406 -10.665324 0.000000 0.000000 0.000000 8.406459 -5.739825 -9.305587 -46.475568 -22.434094 4.686962 57.228861 5.265232 -0.855070 -20.418567 -20.594803 -9.017117 0.000000 0.000000 0.000000 8.406459 -5.739825 -9.305587 0.000000 0.000000 0.000000 10.138327 -1.916855 -5.798091 7.802027 -1.932132 -5.835048 0.000000 0.000000 0.000000 7.811551 -1.777851 -5.889252 -5.801791 0.019826 -5.579566 0.000000 0.000000 0.000000 7.811551 -1.777851 -5.889252 0.459912 -5.814611 -12.820957 -23.955772 18.174997 -30.086915 -0.000005 -49.337482 -0.000013 0.000000 0.000000 0.000000 7.811551 -1.777851 -5.889252 0.591480 2.416959 6.076047 14.609013 -4.913925 71.035497 0.000005 68.647376 0.000001 0.000000 0.000000 0.000000 
7.626098 71.250526 -2.670977 0.000000 0.000000 0.000000 8.249882 -6.055335 -9.204367 -54.801483 -9.441093 28.594894 53.838956 2.388725 -1.906902 -3.109502 1.354946 -10.154610 0.000000 0.000000 0.000000 8.249882 -6.055335 -9.204367 -46.465709 -21.799216 5.217589 57.046850 4.617540 -0.854619 -20.084689 -20.526962 -8.894775 0.000000 0.000000 0.000000 8.249882 -6.055335 -9.204367 0.000000 0.000001 0.000000 10.116987 -1.872655 -5.722915 7.766331 -1.881254 -5.764695 0.000000 0.000000 0.000000 7.775779 -1.714104 -5.839997 -5.399589 0.034370 -5.353802 0.000000 0.000000 0.000000 7.775779 -1.714104 -5.839997 0.441819 -5.841090 -13.359259 -22.460546 18.926579 -31.792352 0.000003 -47.602256 -0.000008 0.000000 0.000000 0.000000 7.775779 -1.714104 -5.839997 0.608404 2.739674 6.705400 12.627953 -3.489223 70.454419 0.000003 66.437960 0.000001 0.000000 0.000000 0.000000 
7.465775 71.300995 -2.871840 0.000000 0.000000 0.000000 8.066004 -6.334755 -9.090343 -54.623113 -9.325608 28.556331 53.829291 2.648712 -1.905590 -3.152303 1.301579 -9.725044 0.000000 0.000000 0.000000 8.066004 -6.334755 -9.090343 -46.322982 -21.278257 5.690549 56.747315 4.037304 -0.853714 -19.744308 -20.389865 -8.820126 0.000000 0.000000 0.000000 8.066004 -6.334755 -9.090343 0.000000 0.000000 0.000000 10.039430 -1.843164 -5.678164 7.694629 -1.844071 -5.695971 0.000000 0.000000 0.000000 7.704308 -1.668614 -5.799785 -5.058748 0.060553 -5.161681 0.000000 0.000000 0.000000 7.704308 -1.668614 -5.799785 0.436690 -5.873330 -13.840765 -21.216837 19.677987 -33.523856 -0.000007 -46.002031 0.000008 0.000000 0.000000 0.000000 7.704308 -1.668614 -5.799785 0.628605 3.064501 7.328854 10.660721 -1.748664 69.787868 -0.000002 64.023557 -0.000007 0.000000 0.000000 0.000000 
7.296593 71.407639 -3.059673 0.000000 0.000000 0.000000 7.872300 -6.694748 -8.988269 -54.230630 -9.213137 28.617200 53.601651 3.003340 -1.904045 -3.109086 1.242164 -9.416346 0.000000 0.000000 0.000000 7.872300 -6.694748 -8.988269 -46.023201 -20.846354 6.182850 56.243790 3.434333 -0.852304 -19.313934 -20.048081 -8.751760 0.000000 0.000000 0.000000 7.872300 -6.694748 -8.988269 -0.000000 0.000001 0.000001 9.902436 -1.824528 -5.627070 7.585592 -1.822164 -5.647209 0.000000 0.000000 0.000000 7.595688 -1.630371 -5.761801 -4.876799 0.092322 -4.977100 0.000000 0.000000 0.000000 7.595688 -1.630371 -5.761801 0.424260 -5.890609 -14.240731 -19.719256 19.966340 -35.477102 -0.000001 -44.601173 0.000002 0.000000 0.000000 0.000000 7.595688 -1.630371 -5.761801 0.627541 3.434270 7.959690 9.077538 0.016076 68.744775 -0.000011 61.942692 0.000013 0.000000 0.000000 0.000000 
7.128179 71.570679 -3.220722 0.000000 0.000000 0.000000 7.629072 -7.146490 -8.897016 -53.651436 -9.021176 28.710249 53.256962 3.385970 -1.903775 -3.041589 1.185960 -9.156560 0.000000 0.000000 0.000000 7.629072 -7.146490 -8.897016 -45.523853 -20.455305 6.703570 55.548884 2.848703 -0.850460 -18.814168 -19.562148 -8.692834 0.000000 0.000000 0.000000 7.629072 -7.146490 -8.897016 0.000000 0.000000 -0.000001 9.706102 -1.817449 -5.591837 7.437454 -1.791789 -5.611869 0.000000 0.000000 0.000000 7.447825 -1.584535 -5.709140 -4.609021 0.120843 -4.760921 0.000000 0.000000 0.000000 7.447825 -1.584535 -5.709140 0.416260 -5.889153 -14.548948 -18.858946 19.921529 -37.295005 0.000020 -43.194444 0.000043 0.000000 0.000000 0.000000 7.447825 -1.584535 -5.709140 0.643602 3.846710 8.530064 7.588286 1.664688 67.772661 0.000018 60.162321 -0.000021 0.000000 0.000000 0.000000 
